HIERARCHY
ROOT Hips
{
  OFFSET -119.526 91.4831 43.3124
  CHANNELS 6 Xposition Yposition Zposition Zrotation Xrotation Yrotation
  JOINT RightUpLeg
  {
    OFFSET -8.9458 -8.66707 0.101652
    CHANNELS 3 Zrotation Xrotation Yrotation
    JOINT RightLeg
    {
      OFFSET 0 -44.4227 1.3727
      CHANNELS 3 Zrotation Xrotation Yrotation
      JOINT RightFoot
      {
        OFFSET 0.253549 -42.0924 -1.46059
        CHANNELS 3 Zrotation Xrotation Yrotation
        JOINT RightToes
        {
          OFFSET 0.04 -4.41509 8.4991
          CHANNELS 3 Zrotation Xrotation Yrotation
          End Site
          {
            OFFSET -0.08 -0.137448 9.77979
          }
        }
      }
    }
  }
  JOINT Spine
  {
    OFFSET 0 11.8905 0
    CHANNELS 3 Zrotation Xrotation Yrotation
    JOINT Spine1
    {
      OFFSET 0 25.6574 0.127663
      CHANNELS 3 Zrotation Xrotation Yrotation
      JOINT HEad
      {
        OFFSET 0 8.73416 0.011341
        CHANNELS 3 Zrotation Xrotation Yrotation
        End Site
        {
          OFFSET -0.29 12.7742 2.51395
        }
      }
      JOINT LeftShoulder1
      {
        OFFSET 8.99 -0.362252 -0.22
        CHANNELS 3 Zrotation Xrotation Yrotation
        JOINT LeftArm
        {
          OFFSET 10.2827 -0.00338 0.322123
          CHANNELS 3 Zrotation Xrotation Yrotation
          JOINT LeftForeArm
          {
            OFFSET 32.7669 0.099144 -1.42434
            CHANNELS 3 Zrotation Xrotation Yrotation
            JOINT LeftHand
            {
              OFFSET 27.5643 0.085362 1.02216
              CHANNELS 3 Zrotation Xrotation Yrotation
              End Site
              {
                OFFSET 16.7443 -0.6 1.50291
              }
            }
          }
        }
      }
      JOINT RightShoulder
      {
        OFFSET -8.99 -0.362252 -0.22
        CHANNELS 3 Zrotation Xrotation Yrotation
        JOINT RightArm
        {
          OFFSET -10.2827 -0.00338 0.322123
          CHANNELS 3 Zrotation Xrotation Yrotation
          JOINT RightForeArm
          {
            OFFSET -32.8971 0.099144 -1.42434
            CHANNELS 3 Zrotation Xrotation Yrotation
            JOINT RightHand
            {
              OFFSET -27.4921 0.085362 1.02216
              CHANNELS 3 Zrotation Xrotation Yrotation
              End Site
              {
                OFFSET -16.6312 -0.6 1.50291
              }
            }
          }
        }
      }
    }
  }
  JOINT LeftUpLeg
  {
    OFFSET 8.9458 -8.66707 0.101652
    CHANNELS 3 Zrotation Xrotation Yrotation
    JOINT LeftLeg
    {
      OFFSET 0 -44.4227 1.3727
      CHANNELS 3 Zrotation Xrotation Yrotation
      JOINT LeftFoot
      {
        OFFSET -0.253549 -42.0924 -1.46059
        CHANNELS 3 Zrotation Xrotation Yrotation
        JOINT LeftToes
        {
          OFFSET -0.04 -4.41509 8.4991
          CHANNELS 3 Zrotation Xrotation Yrotation
          End Site
          {
            OFFSET 0.08 -0.047448 9.77979
          }
        }
      }
    }
  }
}
MOTION
Frames:	18
Frame Time:	0.0166667
-84.5117 89.3063 48.829 -0.637786 7.5144 -150.521 -21.297 -13.2151 8.18703 13.0968 32.6935 -25.5306 11.8485 28.5467 -3.68808 -49.4897 -39.6166 -5.76564 2.83058 11.5573 -9.20822 -1.61215 23.3831 -17.3393 9.5097 -18.32 -8.75602 2.38542e-015 3.18055e-015 -7.95139e-016 -57.6045 11.7436 -112.711 36.0767 32.4442 -111.405 -10.1979 7.4407 29.8429 30.12 -1.37175 -6.56923 63.8426 -68.211 31.2128 -15.8898 18.5908 151.507 32.6905 3.04269 -26.9969 37.1605 -7.31531 -10.953 -12.64 22.7088 13.2003 -13.4929 16.3939 2.71597 17.869 -30.0809 -9.58795 
-85.5424 89.0277 48.477 0.0219288 8.25151 -150.906 -20.7781 -12.0243 8.30946 12.6727 32.1551 -23.9611 13.3827 27.4111 -4.04911 -48.9886 -39.6143 -5.12064 2.66461 11.7238 -9.10548 -2.18982 23.7604 -16.9598 10.6534 -17.4485 -9.01428 1.98785e-015 0 -0 -55.1928 13.5575 -113.133 37.8411 30.4893 -113.28 -10.1683 7.37201 30.5997 30.1279 -1.28709 -6.30085 59.8112 -67.6937 27.325 -16.234 18.2854 152.793 30.8914 3.06361 -28.252 38.2549 -8.34976 -10.4619 -13.2711 25.6326 12.4426 -13.8356 21.6514 3.39434 23.3053 -38.0653 -8.19106 
-86.8424 88.9941 48.203 0.494216 8.61654 -151.639 -20.6604 -10.9569 8.70965 12.1925 31.1889 -21.6373 14.6061 25.5214 -4.19435 -46.1213 -38.2304 -3.47413 2.59995 11.7589 -8.8398 -2.8364 23.8711 -16.2196 11.3532 -16.2605 -9.90333 -1.59028e-015 -3.18055e-015 -0 -52.9549 14.9725 -112.246 39.7819 27.0692 -116.182 -10.0969 7.32769 31.2143 30.2614 -1.29149 -6.29653 56.788 -67.0421 24.6094 -16.5115 18.836 154.182 26.1224 3.77253 -29.738 39.1602 -8.79821 -9.72539 -13.2666 27.4444 8.83536 -17.4337 27.3904 5.18023 29.56 -46.0262 -6.08607 
-88.3467 89.2548 48.001 0.709319 8.5607 -152.595 -20.9153 -10.0141 9.17809 11.3661 29.7957 -18.5448 15.3278 23.3497 -4.12499 -41.4852 -35.3979 -1.53837 2.52732 11.7094 -8.39881 -3.52199 23.7987 -15.1542 11.7249 -15.0899 -11.3863 -3.18055e-015 6.36111e-015 7.95139e-016 -50.6868 16.2088 -110.507 41.8507 22.3473 -119.376 -9.98371 7.31442 31.6244 30.8154 -1.50324 -6.8769 53.9542 -64.859 22.3919 -16.5063 19.0313 155 19.0751 5.24983 -30.7116 39.7781 -8.79907 -9.35075 -13.207 27.9564 2.71572 -23.6475 32.1416 8.12065 34.391 -51.9082 -4.91897 
-89.9945 89.8094 47.8702 0.685756 8.11797 -153.653 -21.4735 -9.21504 9.53614 10.0423 27.9847 -14.911 15.8831 21.5799 -4.04057 -36.1445 -31.5743 0.0256095 2.33242 11.6262 -7.80122 -4.16049 23.6331 -13.8711 11.9102 -14.1721 -13.3245 -3.97569e-016 0 7.95139e-016 -48.3048 17.4523 -108.326 44.0017 16.5261 -122.33 -10.0989 7.24142 32.0755 31.8382 -1.96622 -8.11403 51.3851 -60.1277 20.8742 -16.2048 17.4194 154.453 12.4844 6.86504 -30.3493 40.052 -8.61019 -9.68604 -13.4799 27.5137 -4.8351 -30.44 34.32 11.1978 34.8018 -54.0579 -6.88987 
-91.7582 90.5968 47.8276 0.534743 7.39522 -154.779 -22.2696 -8.67498 9.78366 8.45472 25.8421 -11.3341 16.6806 20.7433 -4.1294 -30.8507 -27.3769 1.06413 1.95495 11.5193 -7.10003 -4.69021 23.3893 -12.5032 12.0591 -13.5041 -15.478 -3.97569e-016 0 7.95139e-016 -45.9793 18.7967 -105.844 45.9885 10.0553 -124.668 -10.887 6.95738 32.9023 33.2228 -2.66626 -9.88289 50.0473 -54.946 20.6634 -15.4208 15.6829 152.762 9.2333 7.76888 -28.6928 39.97 -8.42004 -10.565 -13.8453 26.7331 -11.9371 -34.9562 33.8353 12.823 31.5932 -52.5338 -10.6241 
-93.6625 91.484 47.9097 0.432323 6.53265 -156.05 -23.2505 -8.64663 10.0775 7.173 23.6419 -8.65841 17.6609 21.0245 -4.41812 -25.8805 -23.1844 1.68408 1.47056 11.3152 -6.37051 -5.10209 22.9226 -11.1605 12.3136 -12.8031 -17.5317 7.95139e-016 6.36111e-015 -7.95139e-016 -44.2094 20.2693 -102.725 47.3704 3.77769 -126.195 -12.4335 6.42029 34.052 34.9166 -3.59764 -12.0651 49.898 -51.5115 21.4972 -13.9955 16.3178 150.531 9.0748 8.0402 -26.0136 39.6181 -8.24596 -11.5286 -13.8652 26.1145 -16.1055 -35.6209 32.2897 12.5847 28.6591 -49.8225 -12.8114 
-95.744 92.3123 48.1438 0.530898 5.65886 -157.629 -24.3458 -9.41314 10.5266 6.70244 21.7691 -7.61949 18.4674 22.441 -4.84541 -21.5588 -19.4088 2.00562 1.01279 10.8934 -5.68295 -5.42989 21.9945 -9.91952 12.7598 -11.6506 -19.1656 -3.57812e-015 0 -0 -43.6191 21.8337 -98.2701 47.7064 -1.36943 -126.979 -14.1375 5.82398 35.0503 36.9302 -4.74991 -14.5144 49.6856 -48.9244 22.6207 -12.3923 18.5942 147.92 10.1193 8.13883 -22.9377 39.1837 -7.98531 -12.2425 -13.5026 25.8743 -15.5035 -32.7313 31.2363 11.1847 27.742 -48.3445 -12.7962 
-97.9884 92.9597 48.5202 0.869974 4.88516 -159.672 -25.4361 -11.0789 10.9841 7.14494 20.5187 -8.54932 18.9468 24.8578 -5.36425 -18.5121 -16.7466 2.30037 0.632146 10.2173 -5.08932 -5.69572 20.5339 -8.8467 13.3634 -9.84798 -20.1524 -1.98785e-015 0 -0 -44.5696 23.2171 -91.9802 46.6541 -4.73373 -127.313 -15.0404 5.51829 35.4132 39.0377 -5.9615 -16.8128 48.2276 -45.4564 23.337 -11.4033 20.3037 145.23 10.9077 8.25588 -20.5534 38.8797 -7.48583 -12.6817 -13.1515 26.0019 -9.99179 -27.1666 30.8365 9.08203 28.2089 -47.9572 -11.3746 
-100.323 93.3358 48.9966 1.37936 4.32696 -162.215 -26.3498 -13.5082 11.0512 8.21168 20.1636 -11.1674 19.2264 27.8048 -5.93207 -17.4089 -15.9076 2.90088 0.325973 9.42854 -4.64041 -5.83552 18.8343 -8.03672 13.9405 -7.67733 -20.3961 0 3.18055e-015 -0 -46.9669 23.7641 -84.1518 44.0601 -6.04012 -127.579 -14.5181 5.73937 34.9009 40.6013 -6.84798 -18.3259 45.868 -40.8466 23.5963 -11.5209 20.4268 143.035 10.9869 8.33232 -19.7059 38.8108 -6.56344 -13.0165 -13.1818 26.3031 -1.18218 -20.0885 30.3433 6.52636 28.4929 -47.0933 -9.68346 
-102.711 93.4063 49.5496 1.93086 4.0946 -165.093 -27.0026 -16.2583 10.3656 9.4592 20.7298 -14.4936 19.6534 30.7752 -6.57391 -18.5802 -17.2641 3.90091 0.110137 8.78672 -4.40957 -5.73207 17.4421 -7.62378 14.2609 -5.75202 -19.8779 -3.97569e-016 0 -1.19271e-015 -50.2264 22.6994 -75.9456 40.2211 -5.44502 -128.016 -12.772 6.38899 33.5808 40.8754 -6.98773 -18.542 44.22 -36.1216 23.8259 -12.6443 19.3976 141.721 11.1558 8.2054 -20.6968 38.8138 -5.05861 -13.4013 -13.5255 26.4019 8.34656 -13.0403 29.6129 4.06367 27.7969 -45.2111 -8.56677 
-105.124 93.1412 50.1567 2.44271 4.26735 -168.006 -27.3808 -18.9365 8.93186 10.6021 22.3087 -17.2092 20.6901 33.2853 -7.38721 -21.7255 -20.5731 5.03302 0.0356409 8.5151 -4.44943 -5.33139 16.8228 -7.71 14.2282 -4.58321 -18.6776 1.93815e-015 -3.18055e-015 -2.98177e-016 -53.4462 19.7653 -68.7661 35.9926 -3.65571 -128.591 -10.6731 7.1243 31.8367 39.5406 -6.23431 -17.2839 44.6393 -32.5739 24.3135 -14.3249 18.0543 141.367 12.8524 7.65615 -23.2161 38.6444 -2.98717 -13.8641 -13.725 26.0372 16.2344 -7.10181 29.3844 2.10559 27.0953 -43.5004 -7.63931 
-107.534 92.5248 50.7846 2.90394 4.83886 -170.663 -27.5513 -21.3431 7.12475 11.6434 24.9061 -18.4062 22.6022 34.9416 -8.42602 -26.0097 -24.9817 5.8781 0.130173 8.66618 -4.70565 -4.68248 17.0726 -8.22507 13.9077 -4.28055 -17.1243 1.98785e-016 0 7.95139e-016 -55.9806 15.5687 -63.4406 32.3413 -1.64945 -129.186 -9.05192 7.66957 30.1873 37.0983 -4.93933 -14.9463 47.0751 -30.902 25.1969 -16.1358 16.8524 141.803 16.814 6.50451 -26.2802 38.1628 -0.533755 -14.3275 -13.3553 25.2362 21.2335 -2.38608 30.2622 0.591783 27.9687 -43.4454 -5.67602 
-109.946 91.6051 51.4208 3.31219 5.69035 -172.888 -27.666 -23.3453 5.40229 12.7224 28.0991 -18.0301 25.2188 35.6526 -9.60025 -30.6334 -29.6111 6.25673 0.361355 9.12041 -5.02654 -3.87791 17.932 -8.89054 13.3921 -4.66323 -15.757 1.98785e-015 9.54166e-015 -2.38542e-015 -57.7793 11.1751 -60.0751 29.8119 -0.0730455 -129.759 -8.17665 7.966 29.0052 34.6311 -3.73287 -12.5177 50.2283 -30.7902 26.6548 -17.7851 15.8398 142.582 22.2037 4.93847 -28.6111 37.3472 2.06165 -14.692 -12.395 24.2097 23.5445 1.7008 32.117 -0.8025 31.5587 -45.4463 -1.29298 
-112.338 90.4566 52.0435 3.66041 6.65971 -174.688 -27.7981 -24.9787 4.17054 14.0527 31.478 -16.7556 27.9202 35.5026 -10.6357 -35.1262 -33.9616 6.26015 0.652832 9.72196 -5.24412 -3.02117 19.078 -9.39037 12.7587 -5.57048 -14.9832 1.98785e-015 9.54166e-015 4.77083e-015 -59.1255 7.43222 -58.4779 28.4714 0.934885 -130.289 -7.89669 8.07067 28.4473 32.9573 -2.98098 -10.8547 52.8765 -31.4006 28.7185 -19.0467 15.1325 143.174 27.005 3.60288 -29.5789 36.3285 4.59783 -14.929 -11.2555 23.3306 24.5504 5.89388 34.0405 -2.3793 38.2063 -48.4688 6.34497 
-114.648 89.1879 52.6199 3.92925 7.64778 -176.218 -27.9068 -26.3066 3.79004 15.9354 34.6743 -15.6919 29.8484 34.7995 -11.2155 -39.2162 -37.7425 5.96055 0.861471 10.3754 -5.25191 -2.25792 20.3346 -9.53191 12.142 -6.94061 -14.8713 -0 -3.18055e-015 -0 -60.2706 4.6819 -58.3935 28.1331 1.48801 -130.714 -8.06656 8.02847 28.5229 32.2396 -2.66096 -10.0966 54.7061 -32.2849 31.1466 -19.7245 15.2257 143.32 29.3337 3.05604 -29.5417 35.2891 6.96857 -15.0921 -10.5058 23.0041 25.8432 10.4414 34.6766 -4.11527 46.5222 -50.7014 16.1447 
-116.795 87.9085 53.116 4.10539 8.65838 -177.682 -27.8651 -27.3284 4.42973 18.5761 37.3926 -15.971 30.4255 34.0535 -11.2381 -42.8003 -40.7278 5.22537 0.860411 11.041 -5.01864 -1.73123 21.652 -9.26391 11.6832 -8.6933 -15.2779 2.38542e-015 0 -0 -61.345 2.88955 -59.4875 28.4983 1.77148 -130.965 -8.6681 7.85071 29.0991 32.2367 -2.59178 -9.89277 56.0376 -33.4727 33.5561 -19.7461 16.5432 143.068 28.5636 3.39029 -28.9973 34.3761 9.22164 -15.2562 -10.5342 23.3199 28.1639 14.7832 33.1461 -5.52987 53.55 -51.2436 25.0519 
-118.712 86.6893 53.4998 4.18759 9.71765 -179.198 -27.575 -28.0022 5.89232 21.8587 39.474 -18.2689 29.6129 33.6879 -10.8261 -45.8926 -42.7007 3.76488 0.654156 11.6916 -4.58669 -1.48144 22.9925 -8.65077 11.4087 -10.6667 -16.0452 7.95139e-016 0 1.59028e-015 -62.49 1.83376 -61.371 29.1781 2.08198 -131.061 -9.64 7.55952 29.9237 32.5354 -2.59907 -9.8451 57.2748 -34.963 35.5559 -19.2148 18.8882 142.509 25.4487 4.36904 -27.947 33.6453 11.5025 -15.4122 -11.301 23.9251 31.1617 18.0976 29.7756 -6.16241 57.5146 -50.6404 30.9304 
